<svg width="80" height="80" xmlns="http://www.w3.org/2000/svg" xml:space="preserve" enable-background="new 0 0 119.828 122.88" version="1.1">

 <g>
  <title>Layer 1</title>
  <g stroke-width="0.5" stroke="null" id="svg_1">
   <path fill="#ffffff" stroke="#ffffff" id="svg_2" d="m34.98265,10.7845c5.77386,0 11.00033,2.34447 14.78408,6.13515c3.78376,3.79069 6.12394,9.02716 6.12394,14.81159c0,5.55294 -2.15671,10.59996 -5.67607,14.34859c0.06404,0.04725 0.12592,0.09971 0.18434,0.1578l15.05237,15.05913c0.63048,0.62817 0.63394,1.6504 0.00606,2.28247c-0.62702,0.63207 -1.64739,0.63467 -2.27787,0.0065l-15.05237,-15.05913c-0.09563,-0.09537 -0.17655,-0.19942 -0.24362,-0.30997c-3.55398,2.79489 -8.03313,4.46177 -12.90129,4.46177c-5.77386,0 -11.00119,-2.34447 -14.78495,-6.13515c-3.78332,-3.79069 -6.12351,-9.02759 -6.12351,-14.81203s2.34018,-11.02091 6.12394,-14.81159c3.78376,-3.79025 9.01109,-6.13515 14.78495,-6.13515l0,0zm12.4465,8.47745c-3.1853,-3.19113 -7.58569,-5.16494 -12.4465,-5.16494c-4.86081,0 -9.26164,1.97381 -12.44693,5.16494c-3.1853,3.19113 -5.1555,7.59958 -5.1555,12.46929c0,4.86971 1.9702,9.2786 5.1555,12.46973c3.18486,3.19113 7.58569,5.16494 12.44693,5.16494c4.86081,0 9.2612,-1.97381 12.4465,-5.16494c3.1853,-3.1907 5.1555,-7.59958 5.1555,-12.46973c0,-4.86971 -1.9702,-9.27816 -5.1555,-12.46929l0,0z"/>
  </g>
 </g>
</svg>